<svg width="158" height="27" xmlns="http://www.w3.org/2000/svg" version="1.1">
 <!-- Generator: Sketch 55.2 (78181) - https://sketchapp.com -->

 <title>Group 2</title>
 <desc>Created with Sketch.</desc>
 <g>
  <title>Layer 1</title>
  <path fill="#FF0000" id="" d="m16.50276,17.22951l1.32597,-2.22951l5.17127,8.85246c-1.23758,1.00547 -2.60773,1.78142 -4.1105,2.32787c-1.50277,0.54645 -3.11601,0.81967 -4.83978,0.81967c-1.06078,0 -2.07734,-0.10929 -3.04972,-0.32787l5.50276,-9.44262zm-15.50276,0.77049l14,0l-5.343,9c-2.07408,-0.75556 -3.85506,-1.92221 -5.34299,-3.5c-1.48793,-1.57779 -2.59259,-3.4111 -3.31401,-5.5zm8.32317,-4.9893l1.67683,2.9893l-10.73171,0c-0.17886,-0.97327 -0.26829,-1.96969 -0.26829,-2.9893c0,-1.94654 0.33536,-3.77718 1.0061,-5.49198c0.67073,-1.71481 1.58739,-3.22103 2.75,-4.51872l5.56707,10.0107zm18.40854,-2.0107c0.17886,0.97327 0.26829,1.96969 0.26829,2.9893c0,1.94654 -0.33536,3.76559 -1.0061,5.45722c-0.67073,1.69163 -1.58739,3.20944 -2.75,4.55348l-7.2439,-13l10.73171,0zm-0.73171,-1l-14,0l5.343,-9c2.07408,0.75556 3.85506,1.92221 5.34299,3.5c1.48793,1.57779 2.59259,3.4111 3.31401,5.5zm-16.69613,1.86885l-0.1326,0.13115l-5.17127,-8.85246c1.23758,-1.00547 2.60773,-1.78142 4.1105,-2.32787c1.50277,-0.54645 3.11601,-0.81967 4.83978,-0.81967c1.06078,0 2.07734,0.10929 3.04972,0.32787l-6.69613,11.54098z"/>
  <text style="cursor: move;" fill="#303636" x="30.64996" y="21.49718" id="svg_4" stroke-width="0" font-size="22" font-family="'Signika'" text-anchor="start" xml:space="preserve" font-weight="bold">ArtfyYou.com</text>
 </g>
</svg>